# xmcd
#
# Track frame offsets:
#	150
#	10340
#	22490
#	35475
#	51140
#	63615
#	76005
#	89805
#	102135
#	115760
#	127740
#	141852
#	157175
#	173317
#	186215
#
# Disc length: 2710 seconds
# Revision: 6
# Processed by: cddbd v1.5.2PL0 Copyright (c) Steve Scherf et al.
# Submitted via: dBpowerAMP V12.0
#
DISCID=c50a940f
DTITLE=Various Artist - Classic Country: Golden '70s D2
DYEAR=1999
DGENRE=Country
TTITLE0=Charley Pride - (Is Anybody Going To) San Antone
TTITLE1=Dolly Parton - Jolene
TTITLE2=Freddy Fender - You'll Lose A Good Thing
TTITLE3=Don Williams - Til the Rivers All Run Dry
TTITLE4=Charlie Rich - A Very Special Love Song
TTITLE5=Ronnie Milsap - Please Don't Tell Me How the Story Ends
TTITLE6=Tammy Wynette - Til I Can Make It On My Own
TTITLE7=George Jones - The Door
TTITLE8=Giley, Mickey - Don't the Girls All Get Prettier At Closing Time
TTITLE9=Conway Twitty - After the Fire Is Gone
TTITLE10=Barbara Mandrell - (If Loving You Is Wrong) I Don't Want To Be Right
TTITLE11=John Conlee - Rose Colored Glasses
TTITLE12=Willie Nelson - Blue Skies
TTITLE13=The Statler Brothers - I'll Go To My Grave Loving You
TTITLE14=C.W. McCall - Convoy
EXTD=
EXTT0=
EXTT1=
EXTT2=
EXTT3=
EXTT4=
EXTT5=
EXTT6=
EXTT7=
EXTT8=
EXTT9=
EXTT10=
EXTT11=
EXTT12=
EXTT13=
EXTT14=
PLAYORDER=
